PathFileType	4	(X/Y/Z)	D:\Documents\my_script\MATLAB\opensim\convert_file_format\tsv_to_trc\CE_8km_M.tsv
DataRate	CameraRate	NumFrames	NumMarkers	Units	OrigDataRate	OrigDataStartFrame	OrigNumFrames
200	200	19	23	mm	200	0	200
Frame#	Time	Top.Head			L.Acromium			R.Acromium			Sternum			L.ASIS			R.ASIS			V.Sacral			L.Knee.Lat			L.Knee.Med			L.Ankle.Lat			L.Ankle.Med			L.Heel			L.Toe.Lat			L.Toe.Med			L.Toe.Tip			R.Knee.Lat			R.Knee.Med			R.Ankle.Lat			R.Ankle.Med			R.Heel			R.Toe.Lat			R.Toe.Med			R.Toe.Tip		
		X1	Y1	Z1	X2	Y2	Z2	X3	Y3	Z3	X4	Y4	Z4	X5	Y5	Z5	X6	Y6	Z6	X7	Y7	Z7	X8	Y8	Z8	X9	Y9	Z9	X10	Y10	Z10	X11	Y11	Z11	X12	Y12	Z12	X13	Y13	Z13	X14	Y14	Z14	X15	Y15	Z15	X16	Y16	Z16	X17	Y17	Z17	X18	Y18	Z18	X19	Y19	Z19	X20	Y20	Z20	X21	Y21	Z21	X22	Y22	Z22	X23	Y23	Z23
200	0.995	-10.697	1747.552	381.538	201.795	1464.482	376.064	-179.814	1460.373	319.294	0.573	1409.322	438.954	162.997	953.335	376.988	-120.999	951.971	361.29	24.073	1022.321	189.323	169.295	523.195	158.446	49.015	481.933	152.689	149.847	205.185	-64.214	60.222	185.115	-31.023	85.279	231.824	-158.859	169.055	77.325	-57.501	63.285	62.257	-15.954	114.812	36.301	24.062	-143.762	506.877	399.15	-6.198	483.987	428.009	-101.703	107.509	430.919	-19.47	146.324	466.564	-28.285	36.735	372.748	-151.448	79.508	555.582	-49.735	99.346	585.779	-106.564	125.96	612.925
201	1	-11.804	1747.071	381.26	200.704	1464.222	376.18	-180.579	1459.437	318.847	-0.548	1408.87	438.773	162.604	953.075	377.374	-119.797	958.292	362.055	28.979	1020.973	191.286	168.662	523.367	158.317	48.873	481.853	151.782	150.927	208.312	-68.899	61.22	187.626	-36.212	86.502	237.701	-162.637	169.62	79.933	-65.73	63.981	64.104	-24.362	115.487	35.339	14.51	-143.188	505.826	399.314	-5.452	483.29	428.396	-100.665	107.015	437.124	-19.591	145.91	473.717	-27.525	34.95	380.614	-150.852	80.838	562.138	-48.865	101.113	591.45	-106.055	128.246	618.748
202	1.005	-12.864	1746.263	380.957	199.388	1463.713	376.013	-181.508	1458.154	318.517	-1.616	1408.129	438.571	162.104	952.47	377.702	-119.766	959.614	362.555	29.893	1019.762	191.926	168.393	522.572	159.177	48.786	481.175	151.443	150.756	211.293	-73.776	62.004	190.04	-41.386	87.711	243.423	-166.174	170.191	82.744	-73.641	64.631	65.93	-32.745	116.161	34.268	4.887	-142.602	504.567	399.635	-4.698	482.4	428.822	-99.677	106.277	441.837	-18.952	145.411	478.628	-26.435	33.466	386.336	-150.072	81.478	567.009	-48.264	102.226	596.476	-105.379	129.554	623.141
203	1.01	-13.946	1745.337	380.635	198.316	1463.058	375.897	-182.446	1456.776	318.168	-2.697	1407.302	438.361	161.639	951.788	378.002	-119.601	961.237	363.02	31.255	1018.386	192.674	168.112	521.515	160.21	48.697	480.319	151.23	151.531	214.355	-78.18	62.77	192.418	-46.503	88.907	249.122	-169.597	170.768	85.563	-81.494	65.306	67.692	-41.08	116.834	33.178	-4.777	-142.011	503.258	400.019	-3.96	481.461	429.261	-98.569	105.408	446.177	-18.288	144.762	483.2	-25.304	31.901	391.662	-149.211	81.89	571.497	-47.461	103.032	600.898	-104.63	130.587	627.182
204	1.015	-14.971	1744.128	380.263	197.241	1462.149	375.648	-183.511	1455.139	317.854	-3.7	1406.238	438.15	161.148	950.871	378.246	-119.85	960.914	363.41	31.105	1016.902	192.893	167.942	519.801	161.862	48.625	479.002	151.425	152.236	217.331	-82.371	63.435	194.689	-51.517	90.028	254.695	-172.756	171.39	88.451	-89.104	66.013	69.408	-49.353	117.513	32.017	-14.531	-141.41	501.8	400.53	-3.217	480.356	429.725	-97.414	104.287	449.403	-17.285	143.904	486.489	-24.219	30.38	395.506	-148.158	81.702	574.799	-46.703	103.278	604.553	-103.704	130.867	630.177
205	1.02	-15.991	1742.734	379.924	196.013	1461.061	375.222	-184.644	1453.183	317.637	-4.68	1404.918	437.915	160.663	949.7	378.422	-120.148	960.361	363.808	30.801	1015.206	193.007	167.84	517.46	164.025	48.554	477.229	152.021	152.883	220.266	-86.35	64.041	196.839	-56.358	91.186	260.192	-175.561	172.005	91.37	-96.564	66.781	71	-57.533	118.272	30.823	-24.389	-140.809	500.179	401.186	-2.5	479.074	430.222	-96.089	102.882	451.56	-16.004	142.75	488.499	-23.096	29.077	397.843	-146.866	80.853	576.945	-45.421	102.739	606.699	-102.518	130.295	632.142
206	1.025	-17.011	1741.089	379.555	195.174	1459.59	374.823	-185.845	1450.932	317.46	-5.693	1403.351	437.629	160.224	948.298	378.543	-120.444	959.292	364.125	30.463	1013.187	193.054	167.762	514.567	166.654	48.485	475.024	153.049	154.07	223.122	-89.859	64.633	198.822	-60.945	92.174	265.597	-177.975	172.478	94.298	-103.911	67.646	72.473	-65.562	119.153	29.714	-34.329	-140.206	498.412	401.98	-1.809	477.62	430.731	-94.638	101.427	452.713	-14.546	141.151	489.532	-22.077	28.179	398.526	-145.234	79.387	577.92	-43.74	101.223	607.632	-100.929	128.758	633.151
207	1.03	-17.968	1739.25	379.168	194.217	1457.921	374.265	-187.124	1448.415	317.295	-6.595	1401.515	437.33	159.81	946.586	378.556	-120.855	955.34	363.495	30.072	1010.94	193.054	167.707	511.239	169.677	48.427	472.425	154.526	155.152	225.859	-93.167	65.234	200.633	-65.209	92.887	270.906	-179.926	173.12	97.312	-111.149	68.624	73.894	-73.415	120.166	28.999	-44.253	-139.629	496.471	402.891	-1.141	475.939	431.242	-93.097	99.994	452.827	-13.288	139.448	488.895	-21.239	27.73	397.463	-143.252	77.295	577.736	-41.291	98.597	606.899	-98.835	126.107	633.276
208	1.035	-18.915	1737.098	378.758	193.055	1456.068	373.53	-188.472	1445.612	317.188	-7.368	1399.409	437.004	159.407	944.614	378.532	-121.279	951.166	362.908	29.637	1008.4	193.024	167.69	507.536	173.011	48.38	469.459	156.439	155.828	228.445	-96.36	65.865	202.263	-69.104	93.326	276.102	-181.389	173.796	100.439	-118.268	69.662	75.454	-81.031	121.343	28.797	-54.002	-139.071	494.363	403.907	-0.509	474.088	431.754	-91.473	98.454	451.852	-11.943	137.345	486.698	-20.669	27.915	394.526	-140.879	74.486	576.344	-38.338	94.78	604.681	-96.159	122.245	632.408
209	1.04	-19.853	1734.769	378.36	191.932	1453.971	372.699	-189.818	1442.515	317.137	-8.133	1397.032	436.632	159.066	942.389	378.479	-121.715	946.684	362.375	29.118	1005.65	192.966	167.759	503.509	176.61	48.369	466.162	158.787	156.466	230.981	-99.275	66.528	203.768	-72.575	93.495	281.172	-182.383	174.326	103.711	-125.253	70.765	77.104	-88.283	122.689	29.155	-63.425	-138.56	492.091	405.038	0.054	472.068	432.27	-89.747	96.769	449.72	-9.856	133.898	483.168	-20.157	28.812	389.611	-138.065	70.81	573.599	-35.193	89.308	601.339	-92.878	116.905	630.414
210	1.045	-20.794	1732.146	377.903	190.987	1451.589	371.818	-191.219	1439.188	317.131	-8.871	1394.389	436.222	158.751	939.908	378.42	-122.157	942.012	361.909	28.566	1002.627	192.89	168.047	499.245	180.464	48.407	462.522	161.525	157.075	233.463	-101.885	67.217	205.185	-75.594	93.085	286.043	-182.989	174.863	107.143	-131.922	71.903	78.927	-95.079	124.169	30.094	-72.34	-138.118	489.701	406.282	0.516	469.879	432.787	-87.993	95.106	446.289	-7.737	130.116	478.269	-19.837	29.978	382.956	-134.953	66.162	569.558	-31.719	82.372	596.545	-89.055	109.98	627.434
211	1.05	-21.659	1729.25	377.396	189.877	1449.017	370.783	-192.642	1435.625	317.146	-9.647	1391.535	435.819	158.441	937.208	378.349	-122.617	937.56	361.628	27.941	999.387	192.785	168.623	494.787	184.519	48.495	458.555	164.588	157.604	235.874	-104.208	67.932	206.564	-78.167	92.464	290.692	-183.208	175.54	110.731	-138.168	73.055	80.931	-101.323	125.708	31.562	-80.584	-137.77	487.236	407.712	0.824	467.526	433.341	-86.318	93.32	441.516	-5.647	126.184	472.281	-19.334	31.161	374.915	-131.828	60.667	564.221	-28.3	74.443	590.466	-85.146	101.774	623.287
212	1.055	-22.502	1726.077	376.844	188.752	1446.23	369.628	-194.108	1431.819	317.237	-10.335	1388.397	435.407	158.155	934.328	378.336	-122.947	935.97	362.452	27.304	995.901	192.638	169.516	490.196	188.749	48.683	454.243	168.026	158.094	238.271	-106.195	68.65	207.932	-80.321	91.757	295.082	-183.122	176.051	114.349	-143.86	74.207	83.064	-106.91	127.284	33.282	-88.072	-137.512	484.783	409.404	1.001	465.077	433.926	-84.795	91.507	435.462	-3.325	121.971	466.136	-18.826	32.32	365.85	-129.095	54.729	557.666	-25.551	66.206	583.676	-81.611	92.91	617.942
213	1.06	-23.323	1722.835	376.291	187.872	1443.15	368.436	-195.548	1427.77	317.359	-11.022	1385.012	434.986	157.903	931.226	378.292	-123.267	934.325	363.241	26.594	992.279	192.421	170.631	485.558	193.126	48.936	449.611	171.723	158.538	240.633	-107.832	69.358	209.323	-82.065	91.01	299.186	-182.79	176.526	117.952	-148.875	75.358	85.207	-111.799	128.855	35.162	-94.729	-137.377	482.45	411.422	1.141	462.566	434.566	-83.45	90.09	428.294	-1.202	118.151	459.901	-18.541	33.314	356.133	-127.159	49.465	550.074	-23.545	58.468	576.184	-78.767	84.225	611.733
214	1.065	-24.176	1719.393	375.723	186.974	1439.883	367.119	-197.029	1423.55	317.528	-11.674	1381.415	434.573	157.804	927.867	378.291	-123.688	932.702	363.823	25.875	988.442	192.09	171.831	480.92	197.601	49.244	444.664	175.675	158.356	242.956	-109.262	70.055	210.725	-83.416	90.3	303.004	-182.199	177.12	121.49	-153.13	76.496	87.387	-115.942	130.384	37.183	-100.471	-137.352	480.349	413.871	1.242	460.093	435.347	-82.433	89.22	420.147	0.279	115.702	452.847	-18.249	34.079	346.144	-126.083	45.222	541.571	-22.029	52.296	567.673	-76.82	76.836	604.482
215	1.07	-24.967	1715.874	375.149	186.2	1436.419	365.713	-197.01	1419.145	316.841	-12.248	1377.623	434.197	157.715	924.335	378.242	-124.098	931.02	364.188	25.149	984.493	191.632	172.895	476.241	202.117	49.597	439.425	179.913	158.103	245.236	-110.289	70.737	212.145	-84.368	89.85	306.578	-181.327	177.739	124.934	-156.589	77.612	89.584	-119.321	131.852	39.327	-105.264	-137.429	478.55	416.783	1.26	457.805	436.282	-81.674	88.767	411.386	1.444	113.951	445.704	-18.033	34.801	336.045	-125.696	42.335	532.339	-21.189	47.71	558.709	-75.688	71.151	596.291
216	1.075	-25.777	1712.3	374.546	185.469	1432.831	364.184	-197.013	1414.581	316.191	-12.592	1373.61	433.879	157.438	920.647	378.047	-124.526	929.127	364.239	24.493	980.407	191	173.718	471.563	206.673	50	433.964	184.479	157.857	247.528	-110.814	71.367	213.604	-84.897	89.699	309.95	-180.149	178.416	128.273	-159.191	78.707	91.808	-121.949	133.25	41.547	-109.089	-137.605	477.075	420.063	1.386	455.762	436.866	-81.099	88.724	402.226	2.418	112.798	437.916	-18.197	35.525	325.868	-125.709	40.785	522.716	-20.703	44.683	549.405	-75.001	67.09	587.52
217	1.08	-26.548	1708.732	373.897	184.914	1429.142	362.608	-197.042	1409.891	315.556	-12.924	1369.501	433.635	157.1	916.845	377.742	-124.99	926.979	363.937	22.334	976.382	189.692	174.257	466.861	211.289	50.385	428.357	189.312	157.583	249.812	-110.808	71.904	215.102	-85.056	89.67	313.123	-178.652	179.121	131.525	-160.924	79.752	94.036	-123.787	134.583	43.823	-111.924	-137.892	475.899	423.55	1.437	454.166	438.135	-80.595	88.962	392.98	3.199	112.103	429.502	-18.485	36.27	315.625	-125.803	40.295	512.843	-20.324	42.861	539.834	-74.508	64.401	578.351
218	1.085	-27.239	1705.188	373.211	184.392	1425.415	360.957	-197.183	1405.119	314.964	-13.205	1365.328	433.482	156.92	912.94	377.398	-125.599	924.95	363.409	21.791	972.069	188.671	174.536	462.157	216.038	49.962	423.03	194.505	157.309	252.061	-110.221	72.45	216.675	-84.583	89.739	316.156	-176.781	179.863	134.689	-161.767	80.781	96.261	-124.819	135.845	46.15	-113.751	-138.316	474.921	427.089	1.383	453.013	439.533	-80.268	89.304	383.692	3.894	111.687	420.595	-18.386	37.09	305.397	-125.797	39.928	502.83	-19.977	41.696	530.072	-74.185	62.476	568.824
